<svg xmlns="http://www.w3.org/2000/svg" width="18.266" height="25.133" viewBox="0 0 18.266 25.133"><defs><style>.a{fill:#ce4735;}.b,.c{stroke:none;}.c{fill:#fff;}</style></defs><g class="a" transform="translate(17.266 1) rotate(90)"><path class="b" d="M 14.99922657012939 16.76607322692871 C 14.64467620849609 16.76607322692871 14.31052589416504 16.62718391418457 14.05833625793457 16.3749828338623 C 13.55041599273682 15.86824417114258 13.54752635955811 15.03060340881348 14.05230617523193 14.50816345214844 L 14.05545616149902 14.50490379333496 L 14.05866622924805 14.50170421600342 L 19.1147289276123 9.455083847045898 L 0.8161662220954895 9.455083847045898 C 0.09042620658874512 9.455083847045898 -0.5000038146972656 8.859374046325684 -0.5000038146972656 8.127153396606445 C -0.5000038146972656 7.402173519134521 0.09006620943546295 6.811413764953613 0.8153662085533142 6.810253620147705 L 19.11632537841797 6.810253620147705 L 14.05833625793457 1.752273797988892 C 13.8118257522583 1.506343722343445 13.67572593688965 1.176073789596558 13.67552661895752 0.8227237462997437 C 13.67531585693359 0.4690137505531311 13.81126594543457 0.1381437480449677 14.05833625793457 -0.1089162454009056 C 14.31052589416504 -0.3611162602901459 14.64457607269287 -0.4999962449073792 14.99894618988037 -0.4999962449073792 C 15.35487365722656 -0.4999962449073792 15.68665218353271 -0.3602863550186157 15.93376541137695 -0.1064470037817955 L 23.23982620239258 7.200334072113037 C 23.49346160888672 7.446893692016602 23.6331672668457 7.777637481689453 23.63336563110352 8.132353782653809 C 23.63357543945312 8.487982749938965 23.49360466003418 8.819790840148926 23.23909378051758 9.067195892333984 L 15.9344539642334 16.37181663513184 C 15.68761730194092 16.62610054016113 15.35568237304688 16.76607322692871 14.99922657012939 16.76607322692871 Z"/><path class="c" d="M 14.99894714355469 -1.9073486328125e-06 C 14.78765106201172 -1.9073486328125e-06 14.57497596740723 0.08154296875 14.41188621520996 0.2446346282958984 C 14.09673595428467 0.559783935546875 14.09673595428467 1.084303855895996 14.41188621520996 1.398723602294922 L 20.32342529296875 7.310254096984863 L 0.8161659240722656 7.310254096984863 C 0.3614368438720703 7.310983657836914 -3.814697265625e-06 7.672423362731934 -3.814697265625e-06 8.127153396606445 C -3.814697265625e-06 8.581893920898438 0.3614368438720703 8.955083847045898 0.8161659240722656 8.955083847045898 L 20.32342529296875 8.955083847045898 L 14.41188621520996 14.85558414459229 C 14.09673595428467 15.18176364898682 14.09673595428467 15.7070140838623 14.41188621520996 16.02143287658691 C 14.57497596740723 16.18452453613281 14.7878360748291 16.26606941223145 14.99922466278076 16.26606941223145 C 15.21061325073242 16.26606941223145 15.42053127288818 16.18452453613281 15.57773590087891 16.02143287658691 L 22.88873672485352 8.710453987121582 C 23.21491622924805 8.395294189453125 23.21491622924805 7.870773315429688 22.88873672485352 7.556353569030762 L 15.57773590087891 0.2446346282958984 C 15.42016124725342 0.08154296875 15.21024417877197 -1.9073486328125e-06 14.99894714355469 -1.9073486328125e-06 M 14.99894618988037 -1.000005722045898 C 15.48993587493896 -1.000005722045898 15.94788360595703 -0.8074893951416016 16.28969192504883 -0.4576206207275391 L 23.59040832519531 6.843815803527832 C 23.9353199005127 7.180347442626953 24.13308906555176 7.649246215820312 24.13336563110352 8.132063865661621 C 24.13365364074707 8.615090370178223 23.93628883361816 9.084548950195312 23.59153938293457 9.421869277954102 L 16.28999710083008 16.7233943939209 C 15.94851875305176 17.07341957092285 15.49057006835938 17.26606369018555 14.99922657012939 17.26606369018555 C 14.51111602783203 17.26606369018555 14.05140590667725 17.07516288757324 13.7047758102417 16.72854423522949 C 13.0051965713501 16.03058433532715 12.99942588806152 14.87830352783203 13.69272613525391 14.16074371337891 L 13.69902610778809 14.15422344207764 L 13.70543575286865 14.14781379699707 L 17.9060115814209 9.955083847045898 L 0.8161659240722656 9.955083847045898 C -0.1852741241455078 9.955083847045898 -1.000003814697266 9.135073661804199 -1.000003814697266 8.127153396606445 C -1.000003814697266 7.126914024353027 -0.1859931945800781 6.311863899230957 0.8145561218261719 6.310254096984863 L 17.90920257568359 6.310254096984863 L 13.7047758102417 2.105834007263184 C 13.36405658721924 1.765903472900391 13.17580604553223 1.310033798217773 13.17552661895752 0.8230133056640625 C 13.1752462387085 0.3356332778930664 13.363205909729 -0.1208953857421875 13.7047758102417 -0.4624767303466797 C 14.05141639709473 -0.8091068267822266 14.51102638244629 -1.000005722045898 14.99894618988037 -1.000005722045898 Z"/></g></svg>