<svg xmlns="http://www.w3.org/2000/svg" width="49.767" height="49.948" viewBox="0 0 49.767 49.948"><defs><style>.a{fill:#000;}</style></defs><g transform="translate(0)"><path class="a" d="M24.884,0A24.974,24.974,0,1,0,49.768,24.974,24.929,24.929,0,0,0,24.884,0Zm0,8.772L39.61,17.987H10.159ZM39.793,32.7h0a2.671,2.671,0,0,1-2.666,2.676H12.644A2.671,2.671,0,0,1,9.977,32.7V18.574a2.671,2.671,0,0,1,.042-.458l14.069,8.8c.017.011.036.018.053.028l.056.03a1.474,1.474,0,0,0,.306.12l.032.007a1.512,1.512,0,0,0,.347.044h0a1.485,1.485,0,0,0,.347-.044l.032-.007a1.488,1.488,0,0,0,.306-.12l.056-.03c.018-.01.036-.017.053-.028l14.069-8.8a2.668,2.668,0,0,1,.042.458Z" transform="translate(-0.001)"/></g></svg>