<svg xmlns="http://www.w3.org/2000/svg" width="49.767" height="49.767" viewBox="0 0 49.767 49.767"><defs><style>.a{fill:#fff;}</style></defs><path class="a" d="M291.48,508.668q-.311.051-.624.093Q291.169,508.719,291.48,508.668Zm0,0" transform="translate(-262.584 -459.225)"/><path class="a" d="M299.637,507.793l-.3.052Zm0,0" transform="translate(-270.244 -458.435)"/><path class="a" d="M278.341,510.34q-.364.041-.732.072Q277.977,510.381,278.341,510.34Zm0,0" transform="translate(-250.625 -460.734)"/><path class="a" d="M286.8,509.738c-.117.016-.234.03-.351.044C286.562,509.768,286.68,509.754,286.8,509.738Zm0,0" transform="translate(-258.602 -460.191)"/><path class="a" d="M306.927,506.41l-.263.055Zm0,0" transform="translate(-276.856 -457.186)"/><path class="a" d="M324.7,502.113l-.212.059Zm0,0" transform="translate(-292.944 -453.307)"/><path class="a" d="M319.289,503.543l-.231.06Zm0,0" transform="translate(-288.046 -454.598)"/><path class="a" d="M312.312,505.254l-.245.055Zm0,0" transform="translate(-281.733 -456.142)"/><path class="a" d="M273.874,511.09q-.2.016-.393.03Q273.678,511.106,273.874,511.09Zm0,0" transform="translate(-246.898 -461.411)"/><path class="a" d="M49.767,24.884A24.884,24.884,0,1,0,24.884,49.767c.146,0,.292,0,.437-.006V30.391H19.975V24.16h5.346V19.575c0-5.317,3.246-8.211,7.989-8.211a44.008,44.008,0,0,1,4.793.245v5.557H34.832c-2.58,0-3.08,1.226-3.08,3.026V24.16h6.17l-.8,6.23H31.752V48.806A24.9,24.9,0,0,0,49.767,24.884Zm0,0" transform="translate(0)"/><path class="a" d="M265.671,511.43q-.388.025-.78.039Q265.282,511.455,265.671,511.43Zm0,0" transform="translate(-239.143 -461.718)"/><path class="a" d="M260.917,511.836q-.206.007-.413.01Q260.711,511.843,260.917,511.836Zm0,0" transform="translate(-235.183 -462.085)"/></svg>