<?xml version="1.0" encoding="utf-8"?>
<!-- Generator: Adobe Illustrator 23.0.2, SVG Export Plug-In . SVG Version: 6.00 Build 0)  -->
<svg version="1.1" id="Layer_1" xmlns="http://www.w3.org/2000/svg" xmlns:xlink="http://www.w3.org/1999/xlink" x="0px" y="0px"
	 viewBox="0 0 305 305" style="enable-background:new 0 0 305 305;" xml:space="preserve">
<style type="text/css">
	.st0{fill:#0078D4;}
	.st1{fill:#50E6FF;}
	.st2{fill:none;stroke:#0078D4;stroke-miterlimit:10;}
	.st3{fill:none;stroke:#50E6FF;stroke-miterlimit:10;}
</style>
<g>
	<g>
		<path class="st0" d="M32.5,22.9c5.3,0,9.6,4.3,9.6,9.6c0,5.3-4.3,9.6-9.6,9.6s-9.6-4.3-9.6-9.6C22.9,27.2,27.2,22.9,32.5,22.9
			 M32.5,21.9c-5.9,0-10.6,4.8-10.6,10.6c0,5.9,4.8,10.6,10.6,10.6s10.6-4.8,10.6-10.6C43.1,26.6,38.4,21.9,32.5,21.9L32.5,21.9z"/>
	</g>
	<g>
		<path class="st0" d="M92.5,22.9c5.3,0,9.6,4.3,9.6,9.6c0,5.3-4.3,9.6-9.6,9.6s-9.6-4.3-9.6-9.6C82.9,27.2,87.2,22.9,92.5,22.9
			 M92.5,21.9c-5.9,0-10.6,4.8-10.6,10.6c0,5.9,4.8,10.6,10.6,10.6s10.6-4.8,10.6-10.6C103.1,26.6,98.4,21.9,92.5,21.9L92.5,21.9z"
			/>
	</g>
	<circle class="st0" cx="152.5" cy="32.5" r="10.6"/>
	<g>
		<path class="st0" d="M212.5,22.9c5.3,0,9.6,4.3,9.6,9.6c0,5.3-4.3,9.6-9.6,9.6s-9.6-4.3-9.6-9.6C202.9,27.2,207.2,22.9,212.5,22.9
			 M212.5,21.9c-5.9,0-10.6,4.8-10.6,10.6c0,5.9,4.8,10.6,10.6,10.6s10.6-4.8,10.6-10.6C223.1,26.6,218.4,21.9,212.5,21.9
			L212.5,21.9z"/>
	</g>
	<g>
		<path class="st0" d="M272.5,22.9c5.3,0,9.6,4.3,9.6,9.6c0,5.3-4.3,9.6-9.6,9.6s-9.6-4.3-9.6-9.6C262.9,27.2,267.2,22.9,272.5,22.9
			 M272.5,21.9c-5.9,0-10.6,4.8-10.6,10.6c0,5.9,4.8,10.6,10.6,10.6s10.6-4.8,10.6-10.6C283.1,26.6,278.4,21.9,272.5,21.9
			L272.5,21.9z"/>
	</g>
	<g>
		<path class="st0" d="M32.5,82.9c5.3,0,9.6,4.3,9.6,9.6c0,5.3-4.3,9.6-9.6,9.6s-9.6-4.3-9.6-9.6C22.9,87.2,27.2,82.9,32.5,82.9
			 M32.5,81.9c-5.9,0-10.6,4.8-10.6,10.6c0,5.9,4.8,10.6,10.6,10.6s10.6-4.8,10.6-10.6C43.1,86.6,38.4,81.9,32.5,81.9L32.5,81.9z"/>
	</g>
	<circle class="st0" cx="92.5" cy="92.5" r="10.6"/>
	<circle class="st1" cx="152.5" cy="92.5" r="10.6"/>
	<circle class="st0" cx="212.5" cy="92.5" r="10.6"/>
	<g>
		<path class="st0" d="M272.5,82.9c5.3,0,9.6,4.3,9.6,9.6c0,5.3-4.3,9.6-9.6,9.6s-9.6-4.3-9.6-9.6C262.9,87.2,267.2,82.9,272.5,82.9
			 M272.5,81.9c-5.9,0-10.6,4.8-10.6,10.6c0,5.9,4.8,10.6,10.6,10.6s10.6-4.8,10.6-10.6C283.1,86.6,278.4,81.9,272.5,81.9
			L272.5,81.9z"/>
	</g>
	<circle class="st0" cx="32.5" cy="152.5" r="10.6"/>
	<circle class="st1" cx="92.5" cy="152.5" r="10.6"/>
	<circle class="st1" cx="152.5" cy="152.5" r="10.6"/>
	<circle class="st1" cx="212.5" cy="152.5" r="10.6"/>
	<circle class="st0" cx="272.5" cy="152.5" r="10.6"/>
	<g>
		<path class="st0" d="M32.5,202.9c5.3,0,9.6,4.3,9.6,9.6s-4.3,9.6-9.6,9.6s-9.6-4.3-9.6-9.6S27.2,202.9,32.5,202.9 M32.5,201.9
			c-5.9,0-10.6,4.8-10.6,10.6c0,5.9,4.8,10.6,10.6,10.6s10.6-4.8,10.6-10.6C43.1,206.6,38.4,201.9,32.5,201.9L32.5,201.9z"/>
	</g>
	<circle class="st0" cx="92.5" cy="212.5" r="10.6"/>
	<circle class="st1" cx="152.5" cy="212.5" r="10.6"/>
	<circle class="st0" cx="212.5" cy="212.5" r="10.6"/>
	<g>
		<path class="st0" d="M272.5,202.9c5.3,0,9.6,4.3,9.6,9.6s-4.3,9.6-9.6,9.6s-9.6-4.3-9.6-9.6S267.2,202.9,272.5,202.9 M272.5,201.9
			c-5.9,0-10.6,4.8-10.6,10.6c0,5.9,4.8,10.6,10.6,10.6s10.6-4.8,10.6-10.6C283.1,206.6,278.4,201.9,272.5,201.9L272.5,201.9z"/>
	</g>
	<g>
		<path class="st0" d="M32.5,262.9c5.3,0,9.6,4.3,9.6,9.6s-4.3,9.6-9.6,9.6s-9.6-4.3-9.6-9.6S27.2,262.9,32.5,262.9 M32.5,261.9
			c-5.9,0-10.6,4.8-10.6,10.6c0,5.9,4.8,10.6,10.6,10.6s10.6-4.8,10.6-10.6C43.1,266.6,38.4,261.9,32.5,261.9L32.5,261.9z"/>
	</g>
	<g>
		<path class="st0" d="M92.5,262.9c5.3,0,9.6,4.3,9.6,9.6s-4.3,9.6-9.6,9.6s-9.6-4.3-9.6-9.6S87.2,262.9,92.5,262.9 M92.5,261.9
			c-5.9,0-10.6,4.8-10.6,10.6c0,5.9,4.8,10.6,10.6,10.6s10.6-4.8,10.6-10.6C103.1,266.6,98.4,261.9,92.5,261.9L92.5,261.9z"/>
	</g>
	<circle class="st0" cx="152.5" cy="272.5" r="10.6"/>
	<g>
		<path class="st0" d="M212.5,262.9c5.3,0,9.6,4.3,9.6,9.6s-4.3,9.6-9.6,9.6s-9.6-4.3-9.6-9.6S207.2,262.9,212.5,262.9 M212.5,261.9
			c-5.9,0-10.6,4.8-10.6,10.6c0,5.9,4.8,10.6,10.6,10.6s10.6-4.8,10.6-10.6C223.1,266.6,218.4,261.9,212.5,261.9L212.5,261.9z"/>
	</g>
	<g>
		<path class="st0" d="M272.5,262.9c5.3,0,9.6,4.3,9.6,9.6s-4.3,9.6-9.6,9.6s-9.6-4.3-9.6-9.6S267.2,262.9,272.5,262.9 M272.5,261.9
			c-5.9,0-10.6,4.8-10.6,10.6c0,5.9,4.8,10.6,10.6,10.6s10.6-4.8,10.6-10.6C283.1,266.6,278.4,261.9,272.5,261.9L272.5,261.9z"/>
	</g>
	<path class="st2" d="M122.5,32.5L122.5,32.5c0,16.6-13.4,30-30,30h0c0,0,0,0,0,0c-16.6,0-30,13.4-30,30v0c0,0,0,0,0,0
		c0,16.6-13.4,30-30,30h0c0,0,0,0,0,0c-16.6,0-30,13.4-30,30v0c0,16.6,13.4,30,30,30h0c0,0,0,0,0,0c16.6,0,30,13.4,30,30v0
		c0,0,0,0,0,0c0,16.6,13.4,30,30,30h0c0,0,0,0,0,0c16.6,0,30,13.4,30,30v0c0,0,0,0,0,0c0,16.6,13.4,30,30,30h0c16.6,0,30-13.4,30-30
		v0c0,0,0,0,0,0c0-16.6,13.4-30,30-30h0c0,0,0,0,0,0c16.6,0,30-13.4,30-30v0c0,0,0,0,0,0c0-16.6,13.4-30,30-30h0c0,0,0,0,0,0
		c16.6,0,30-13.4,30-30v0c0-16.6-13.4-30-30-30h0c0,0,0,0,0,0c-16.6,0-30-13.4-30-30v0c0,0,0,0,0,0c0-16.6-13.4-30-30-30h0
		c0,0,0,0,0,0c-16.6,0-30-13.4-30-30c0,0,0,0,0,0v0c0-16.6-13.4-30-30-30h0C135.9,2.5,122.5,15.9,122.5,32.5
		C122.5,32.5,122.5,32.5,122.5,32.5z"/>
	<path class="st3" d="M122.5,212.5L122.5,212.5c0-16.6-13.4-30-30-30h0c0,0,0,0,0,0c-16.6,0-30-13.4-30-30v0c0-16.6,13.4-30,30-30h0
		c0,0,0,0,0,0c16.6,0,30-13.4,30-30v0c0,0,0,0,0,0c0-16.6,13.4-30,30-30h0c16.6,0,30,13.4,30,30v0c0,0,0,0,0,0c0,16.6,13.4,30,30,30
		h0c0,0,0,0,0,0c16.6,0,30,13.4,30,30v0c0,16.6-13.4,30-30,30h0c0,0,0,0,0,0c-16.6,0-30,13.4-30,30c0,0,0,0,0,0v0
		c0,16.6-13.4,30-30,30h0C135.9,242.5,122.5,229.1,122.5,212.5C122.5,212.5,122.5,212.5,122.5,212.5z"/>
</g>
</svg>
