<?xml version="1.0" encoding="utf-8"?>
<!-- Generator: Adobe Illustrator 23.0.2, SVG Export Plug-In . SVG Version: 6.00 Build 0)  -->
<svg version="1.1" id="Layer_1" xmlns="http://www.w3.org/2000/svg" xmlns:xlink="http://www.w3.org/1999/xlink" x="0px" y="0px"
	 viewBox="0 0 309.5 305" style="enable-background:new 0 0 309.5 305;" xml:space="preserve">
<style type="text/css">
	.st0{fill:none;stroke:#0078D4;stroke-miterlimit:10;}
	.st1{fill:none;stroke:#0078D4;stroke-width:10;stroke-miterlimit:10;}
	.st2{fill:none;stroke:#50E6FF;stroke-width:10;stroke-miterlimit:10;}
	.st3{fill:none;stroke:#50E6FF;stroke-miterlimit:10;}
</style>
<g>
	<path class="st0" d="M263.1,46.4C235.9,19.3,198.4,2.5,157,2.5c-41.4,0-78.9,16.8-106.1,43.9"/>
	<path class="st0" d="M63.7,59.2c23.9-23.9,56.9-38.7,93.3-38.7s69.4,14.8,93.3,38.7"/>
	<path class="st1" d="M63.7,245.8C39.8,221.9,25,188.9,25,152.5c0-36.4,14.8-69.4,38.7-93.3"/>
	<path class="st1" d="M50.9,46.4C23.8,73.6,7,111.1,7,152.5s16.8,78.9,43.9,106.1"/>
	<path class="st0" d="M263.1,258.6c27.1-27.1,43.9-64.6,43.9-106.1c0-41.4-16.8-78.9-43.9-106.1"/>
	<path class="st0" d="M250.3,59.2c23.9,23.9,38.7,56.9,38.7,93.3c0,36.4-14.8,69.4-38.7,93.3"/>
	<path class="st2" d="M76.4,233.1C55.8,212.4,43,183.9,43,152.5s12.8-59.9,33.4-80.6"/>
	<path class="st0" d="M250.3,245.8c23.9-23.9,38.7-56.9,38.7-93.3c0-36.4-14.8-69.4-38.7-93.3"/>
	<path class="st1" d="M157,20.5c-36.4,0-69.4,14.8-93.3,38.7"/>
	<path class="st0" d="M76.4,71.9c20.6-20.6,49.1-33.4,80.6-33.4s59.9,12.8,80.6,33.4"/>
	<path class="st0" d="M224.9,84.6C242.2,102,253,126,253,152.5s-10.8,50.5-28.1,67.9"/>
	<path class="st3" d="M237.6,233.1c20.6-20.6,33.4-49.1,33.4-80.6s-12.8-59.9-33.4-80.6"/>
	<path class="st1" d="M89.1,220.4C71.8,203,61,179,61,152.5S71.8,102,89.1,84.6"/>
	<path class="st2" d="M237.6,71.9c-20.6-20.6-49.1-33.4-80.6-33.4S97.1,51.3,76.4,71.9"/>
	<path class="st0" d="M89.1,84.6c17.4-17.4,41.4-28.1,67.9-28.1s50.5,10.8,67.9,28.1"/>
	<path class="st0" d="M214,229.7c-15.9,11.8-35.7,18.8-57,18.8s-41-7-57-18.8l-38.5,38.5c25.9,21.4,59.2,34.3,95.5,34.3
		c36.3,0,69.5-12.9,95.5-34.3L214,229.7z"/>
</g>
</svg>
