<?xml version="1.0" encoding="utf-8"?>
<!-- Generator: Adobe Illustrator 23.0.2, SVG Export Plug-In . SVG Version: 6.00 Build 0)  -->
<svg version="1.1" id="Layer_1" xmlns="http://www.w3.org/2000/svg" xmlns:xlink="http://www.w3.org/1999/xlink" x="0px" y="0px"
	 viewBox="0 0 304.2 304" style="enable-background:new 0 0 304.2 304;" xml:space="preserve">
<style type="text/css">
	.st0{fill:#50E6FF;}
	.st1{fill:#0078D4;}
</style>
<g>
	<g>
		<path class="st0" d="M100.6,238.5L100.6,238.5c0.8,0,1.6,0.4,2,1.2c0.3,0.5,0.4,1.2,0.2,1.8s-0.5,1.1-1.1,1.4
			c-0.4,0.2-0.8,0.3-1.2,0.3c-0.8,0-1.6-0.4-2-1.2c-0.6-1.1-0.3-2.5,0.9-3.2C99.8,238.6,100.2,238.5,100.6,238.5 M100.6,237.5
			c-0.6,0-1.1,0.1-1.7,0.4c-1.6,0.9-2.1,3-1.2,4.6c0.6,1.1,1.7,1.7,2.9,1.7c0.6,0,1.1-0.1,1.7-0.4c1.6-0.9,2.1-3,1.2-4.6
			C102.9,238.1,101.7,237.5,100.6,237.5L100.6,237.5z"/>
	</g>
	<g>
		<circle class="st0" cx="100.6" cy="63.2" r="3.3"/>
		<circle class="st0" cx="100.6" cy="85.4" r="4"/>
		<circle class="st0" cx="100.6" cy="107.6" r="4.7"/>
		<circle class="st0" cx="100.6" cy="129.8" r="5.3"/>
		<circle class="st0" cx="100.6" cy="152" r="6"/>
		<g>
			<path class="st0" d="M100.6,169.9c2.4,0,4.3,1.9,4.3,4.3s-1.9,4.3-4.3,4.3c-2.4,0-4.3-1.9-4.3-4.3S98.2,169.9,100.6,169.9
				 M100.6,168.9c-2.9,0-5.3,2.4-5.3,5.3s2.4,5.3,5.3,5.3s5.3-2.4,5.3-5.3S103.5,168.9,100.6,168.9L100.6,168.9z"/>
		</g>
		<g>
			<path class="st0" d="M100.6,192.7c2,0,3.7,1.6,3.7,3.7s-1.6,3.7-3.7,3.7s-3.7-1.6-3.7-3.7S98.6,192.7,100.6,192.7 M100.6,191.7
				c-2.6,0-4.7,2.1-4.7,4.7s2.1,4.7,4.7,4.7s4.7-2.1,4.7-4.7S103.2,191.7,100.6,191.7L100.6,191.7z"/>
		</g>
		<g>
			<path class="st0" d="M100.6,215.6c1.7,0,3,1.3,3,3c0,1.7-1.3,3-3,3c-1.7,0-3-1.3-3-3C97.6,217,98.9,215.6,100.6,215.6
				 M100.6,214.6c-2.2,0-4,1.8-4,4c0,2.2,1.8,4,4,4c2.2,0,4-1.8,4-4C104.6,216.4,102.8,214.6,100.6,214.6L100.6,214.6z"/>
		</g>
		<g>
			<path class="st1" d="M235.2,160.8L235.2,160.8c0.8,0,1.6,0.4,2,1.2c0.3,0.5,0.4,1.2,0.2,1.8s-0.5,1.1-1.1,1.4
				c-0.4,0.2-0.8,0.3-1.2,0.3c-0.8,0-1.6-0.4-2-1.2c-0.3-0.5-0.4-1.2-0.2-1.8c0.2-0.6,0.5-1.1,1.1-1.4
				C234.4,160.9,234.8,160.8,235.2,160.8 M235.2,159.8c-0.6,0-1.1,0.1-1.7,0.4c-1.6,0.9-2.1,3-1.2,4.6c0.6,1.1,1.7,1.7,2.9,1.7
				c0.6,0,1.1-0.1,1.7-0.4c1.6-0.9,2.1-3,1.2-4.6C237.5,160.4,236.4,159.8,235.2,159.8L235.2,159.8z"/>
		</g>
		<g>
			<path class="st1" d="M216,171.9L216,171.9c0.8,0,1.6,0.4,2,1.2c0.3,0.5,0.4,1.2,0.2,1.8c-0.2,0.6-0.5,1.1-1.1,1.4
				c-0.4,0.2-0.8,0.3-1.2,0.3c-0.8,0-1.6-0.4-2-1.2c-0.3-0.5-0.4-1.2-0.2-1.8s0.5-1.1,1.1-1.4C215.2,172,215.6,171.9,216,171.9
				 M216,170.9c-0.6,0-1.1,0.1-1.7,0.4c-1.6,0.9-2.1,3-1.2,4.6c0.6,1.1,1.7,1.7,2.9,1.7c0.6,0,1.1-0.1,1.7-0.4
				c1.6-0.9,2.1-3,1.2-4.6C218.3,171.5,217.1,170.9,216,170.9L216,170.9z"/>
		</g>
		<g>
			<path class="st1" d="M196.8,183L196.8,183c0.8,0,1.6,0.4,2,1.2c0.3,0.5,0.4,1.2,0.2,1.8c-0.2,0.6-0.5,1.1-1.1,1.4
				c-0.4,0.2-0.8,0.3-1.2,0.3c-0.8,0-1.6-0.4-2-1.2c-0.3-0.5-0.4-1.2-0.2-1.8s0.5-1.1,1.1-1.4C196,183.1,196.4,183,196.8,183
				 M196.8,182c-0.6,0-1.1,0.1-1.7,0.4c-1.6,0.9-2.1,3-1.2,4.6c0.6,1.1,1.7,1.7,2.9,1.7c0.6,0,1.1-0.1,1.7-0.4
				c1.6-0.9,2.1-3,1.2-4.6C199,182.6,197.9,182,196.8,182L196.8,182z"/>
		</g>
		<g>
			<path class="st1" d="M177.5,194.1L177.5,194.1c0.8,0,1.6,0.4,2,1.2c0.3,0.5,0.4,1.2,0.2,1.8c-0.2,0.6-0.5,1.1-1.1,1.4
				c-0.4,0.2-0.8,0.3-1.2,0.3c-0.8,0-1.6-0.4-2-1.2c-0.3-0.5-0.4-1.2-0.2-1.8s0.5-1.1,1.1-1.4C176.7,194.2,177.1,194.1,177.5,194.1
				 M177.5,193.1c-0.6,0-1.1,0.1-1.7,0.4c-1.6,0.9-2.1,3-1.2,4.6c0.6,1.1,1.7,1.7,2.9,1.7c0.6,0,1.1-0.1,1.7-0.4
				c1.6-0.9,2.1-3,1.2-4.6C179.8,193.7,178.7,193.1,177.5,193.1L177.5,193.1z"/>
		</g>
		<g>
			<path class="st1" d="M158.3,205.2L158.3,205.2c0.8,0,1.6,0.4,2,1.2c0.3,0.5,0.4,1.2,0.2,1.8s-0.5,1.1-1.1,1.4
				c-0.4,0.2-0.8,0.3-1.2,0.3c-0.8,0-1.6-0.4-2-1.2c-0.3-0.5-0.4-1.2-0.2-1.8c0.2-0.6,0.5-1.1,1.1-1.4
				C157.5,205.3,157.9,205.2,158.3,205.2 M158.3,204.2c-0.6,0-1.1,0.1-1.7,0.4c-1.6,0.9-2.1,3-1.2,4.6c0.6,1.1,1.7,1.7,2.9,1.7
				c0.6,0,1.1-0.1,1.7-0.4c1.6-0.9,2.1-3,1.2-4.6C160.6,204.8,159.4,204.2,158.3,204.2L158.3,204.2z"/>
		</g>
		<g>
			<path class="st1" d="M139.1,216.3L139.1,216.3c0.8,0,1.6,0.4,2,1.2c0.6,1.1,0.3,2.5-0.9,3.2c-0.4,0.2-0.8,0.3-1.2,0.3
				c-0.8,0-1.6-0.4-2-1.2c-0.3-0.5-0.4-1.2-0.2-1.8s0.5-1.1,1.1-1.4C138.3,216.4,138.7,216.3,139.1,216.3 M139.1,215.3
				c-0.6,0-1.1,0.1-1.7,0.4c-1.6,0.9-2.1,3-1.2,4.6c0.6,1.1,1.7,1.7,2.9,1.7c0.6,0,1.1-0.1,1.7-0.4c1.6-0.9,2.1-3,1.2-4.6
				C141.3,215.9,140.2,215.3,139.1,215.3L139.1,215.3z"/>
		</g>
		<g>
			<path class="st1" d="M119.8,227.4L119.8,227.4c0.8,0,1.6,0.4,2,1.2c0.3,0.5,0.4,1.2,0.2,1.8s-0.5,1.1-1.1,1.4
				c-0.4,0.2-0.8,0.3-1.2,0.3c-0.8,0-1.6-0.4-2-1.2c-0.6-1.1-0.3-2.5,0.9-3.2C119,227.5,119.4,227.4,119.8,227.4 M119.8,226.4
				c-0.6,0-1.1,0.1-1.7,0.4c-1.6,0.9-2.1,3-1.2,4.6c0.6,1.1,1.7,1.7,2.9,1.7c0.6,0,1.1-0.1,1.7-0.4c1.6-0.9,2.1-3,1.2-4.6
				C122.1,227,121,226.4,119.8,226.4L119.8,226.4z"/>
		</g>
		<g>
			<g>
				<path class="st0" d="M254.5,149.7c0.4,0,0.8,0.1,1.2,0.3c0.5,0.3,0.9,0.8,1.1,1.4c0.2,0.6,0.1,1.2-0.2,1.8
					c-0.4,0.7-1.2,1.2-2,1.2c-0.4,0-0.8-0.1-1.2-0.3c-1.1-0.6-1.5-2.1-0.9-3.2C252.9,150.1,253.6,149.7,254.5,149.7 M254.5,148.7
					c-1.2,0-2.3,0.6-2.9,1.7c-0.9,1.6-0.4,3.6,1.2,4.6c0.5,0.3,1.1,0.4,1.7,0.4c1.2,0,2.3-0.6,2.9-1.7c0.9-1.6,0.4-3.6-1.2-4.6
					C255.6,148.8,255,148.7,254.5,148.7L254.5,148.7z"/>
			</g>
		</g>
		<g>
			<path class="st0" d="M235.2,137.9c0.5,0,1,0.1,1.5,0.4c0.7,0.4,1.2,1,1.4,1.8c0.2,0.8,0.1,1.6-0.3,2.3c-0.5,0.9-1.5,1.5-2.6,1.5
				c-0.5,0-1-0.1-1.5-0.4c-0.7-0.4-1.2-1-1.4-1.8s-0.1-1.6,0.3-2.3C233.2,138.5,234.2,137.9,235.2,137.9 M235.2,136.9
				c-1.4,0-2.7,0.7-3.5,2c-1.1,1.9-0.4,4.4,1.5,5.5c0.6,0.4,1.3,0.5,2,0.5c1.4,0,2.7-0.7,3.5-2c1.1-1.9,0.4-4.4-1.5-5.5
				C236.6,137.1,235.9,136.9,235.2,136.9L235.2,136.9z"/>
		</g>
		<g>
			<path class="st0" d="M216,126.1c0.6,0,1.3,0.2,1.8,0.5c1.8,1,2.4,3.3,1.3,5c-0.7,1.1-1.9,1.8-3.2,1.8c-0.6,0-1.3-0.2-1.8-0.5
				c-1.8-1-2.4-3.3-1.3-5C213.5,126.8,214.7,126.1,216,126.1 M216,125.1c-1.6,0-3.2,0.8-4,2.3c-1.3,2.2-0.5,5.1,1.7,6.4
				c0.7,0.4,1.5,0.6,2.3,0.6c1.6,0,3.2-0.8,4-2.3c1.3-2.2,0.5-5.1-1.7-6.4C217.6,125.3,216.8,125.1,216,125.1L216,125.1z"/>
		</g>
		<g>
			<path class="st0" d="M196.8,114.3c0.8,0,1.5,0.2,2.2,0.6c1,0.6,1.7,1.5,2,2.6c0.3,1.1,0.1,2.3-0.4,3.3c-0.8,1.3-2.2,2.2-3.8,2.2
				c-0.8,0-1.5-0.2-2.2-0.6c-1-0.6-1.7-1.5-2-2.6c-0.3-1.1-0.1-2.3,0.4-3.3C193.8,115.2,195.2,114.3,196.8,114.3 M196.8,113.3
				c-1.8,0-3.6,1-4.6,2.7c-1.5,2.6-0.6,5.8,2,7.3c0.8,0.5,1.8,0.7,2.7,0.7c1.8,0,3.6-1,4.6-2.7c1.5-2.6,0.6-5.8-2-7.3
				C198.6,113.6,197.7,113.3,196.8,113.3L196.8,113.3z"/>
		</g>
		<circle class="st0" cx="177.5" cy="107.6" r="6"/>
		<circle class="st0" cx="158.3" cy="96.5" r="5.3"/>
		<circle class="st0" cx="139.1" cy="85.4" r="4.7"/>
		<circle class="st0" cx="119.8" cy="74.3" r="4"/>
		<circle class="st0" cx="100.6" cy="63.2" r="3.3"/>
		<g>
			<path class="st1" d="M158.4,3c48.1,2,92.3,27.2,118.7,67.7l-16.7,9.9c-22.8-34.5-60.8-56.2-102-58.2V3 M157.4,2v21.4
				c43,1.8,80.6,24.7,102.6,58.6L278.5,71C252.7,30.9,208.3,3.8,157.4,2L157.4,2z"/>
		</g>
		<path class="st1" d="M284,223.8c11.6-21.3,18.2-45.8,18.2-71.8s-6.6-50.5-18.2-71.8l-18.4,10.9c9.8,18.1,15.3,38.9,15.3,60.9
			s-5.6,42.7-15.3,60.9L284,223.8z"/>
		<path class="st0" d="M44.1,81.9C66.2,48,103.8,25.1,146.8,23.4V2C95.9,3.8,51.5,30.9,25.7,71L44.1,81.9z"/>
		<g>
			<path class="st1" d="M260.4,223.4l16.7,9.9c-26.3,40.4-70.6,65.6-118.7,67.7v-19.4C199.6,279.6,237.6,257.9,260.4,223.4
				 M260.1,222.1c-22.1,33.9-59.7,56.8-102.6,58.6V302c50.9-1.8,95.3-28.9,121.1-69L260.1,222.1L260.1,222.1z"/>
		</g>
		<g>
			<path class="st1" d="M20.6,81.6l16.7,9.9c-9.8,18.5-15,39.4-15,60.5c0,21.1,5.2,42,15,60.5l-16.7,9.9C9.1,200.9,3,176.6,3,152
				C3,127.4,9.1,103.1,20.6,81.6 M20.2,80.2C8.6,101.5,2,126,2,152c0,26,6.6,50.5,18.2,71.8l18.4-10.9C28.9,194.7,23.3,174,23.3,152
				c0-22,5.6-42.7,15.3-60.9L20.2,80.2L20.2,80.2z"/>
		</g>
		<path class="st1" d="M146.8,280.6c-43-1.8-80.6-24.7-102.6-58.6L25.7,233c25.8,40.2,70.2,67.3,121.1,69V280.6z"/>
	</g>
</g>
</svg>
