<?xml version="1.0" encoding="utf-8"?>
<!-- Generator: Adobe Illustrator 23.0.2, SVG Export Plug-In . SVG Version: 6.00 Build 0)  -->
<svg version="1.1" id="Layer_1" xmlns="http://www.w3.org/2000/svg" xmlns:xlink="http://www.w3.org/1999/xlink" x="0px" y="0px"
	 viewBox="0 0 305 252.1" style="enable-background:new 0 0 305 252.1;" xml:space="preserve">
<style type="text/css">
	.st0{fill:none;stroke:#0078D4;stroke-miterlimit:10;}
	.st1{fill:#50E6FF;}
</style>
<g>
	<rect x="86.3" y="68.7" class="st0" width="132.4" height="132.4"/>
	<rect x="224.6" y="68.9" class="st0" width="42.7" height="42.7"/>
	<rect x="176" y="20.1" class="st1" width="42.7" height="42.7"/>
	<rect x="86.3" y="20.1" class="st0" width="42.7" height="42.7"/>
	<rect x="37.8" y="20.1" class="st1" width="42.7" height="42.7"/>
	<rect x="37.8" y="158.4" class="st0" width="42.7" height="42.7"/>
	<rect x="86.3" y="206.9" class="st1" width="42.7" height="42.7"/>
	<rect x="224.6" y="206.9" class="st0" width="42.7" height="42.7"/>
	<rect x="224.6" y="117.4" class="st0" width="42.7" height="42.7"/>
	<rect x="224.6" y="20.1" class="st0" width="11.8" height="11.8"/>
	<rect x="242.2" y="20.1" class="st0" width="11.8" height="11.8"/>
	<rect x="224.6" y="37.8" class="st0" width="11.8" height="11.8"/>
	<rect x="273.1" y="68.6" class="st0" width="11.8" height="11.8"/>
	<rect x="290.7" y="68.6" class="st0" width="11.8" height="11.8"/>
	<rect x="273.1" y="86.2" class="st0" width="11.8" height="11.8"/>
	<rect x="273.1" y="206.9" class="st0" width="11.8" height="11.8"/>
	<rect x="290.7" y="206.9" class="st0" width="11.8" height="11.8"/>
	<rect x="273.1" y="224.6" class="st0" width="11.8" height="11.8"/>
	
		<rect x="68.7" y="141.7" transform="matrix(-1 -1.224647e-16 1.224647e-16 -1 149.1197 295.0939)" class="st0" width="11.8" height="11.8"/>
	
		<rect x="51" y="141.7" transform="matrix(-1 -1.224647e-16 1.224647e-16 -1 113.8381 295.0939)" class="st0" width="11.8" height="11.8"/>
	
		<rect x="152.5" y="206.9" transform="matrix(-1 -1.224647e-16 1.224647e-16 -1 316.7606 425.5986)" class="st0" width="11.8" height="11.8"/>
	
		<rect x="206.9" y="206.9" transform="matrix(-1 -1.224647e-16 1.224647e-16 -1 425.5986 425.5986)" class="st0" width="11.8" height="11.8"/>
	
		<rect x="224.6" y="165.9" transform="matrix(-1 -1.224647e-16 1.224647e-16 -1 460.8803 343.6326)" class="st0" width="11.8" height="11.8"/>
	
		<rect x="134.9" y="206.9" transform="matrix(-1 -1.224647e-16 1.224647e-16 -1 281.4789 425.5986)" class="st0" width="11.8" height="11.8"/>
	
		<rect x="20.1" y="158.4" transform="matrix(-1 -1.224647e-16 1.224647e-16 -1 52.0422 328.5211)" class="st0" width="11.8" height="11.8"/>
	
		<rect x="68.7" y="124" transform="matrix(-1 -1.224647e-16 1.224647e-16 -1 149.1197 259.8122)" class="st0" width="11.8" height="11.8"/>
	
		<rect x="68.7" y="68.6" transform="matrix(-1.836970e-16 1 -1 -1.836970e-16 149.028 -9.171567e-02)" class="st0" width="11.8" height="11.8"/>
	
		<rect x="68.7" y="86.2" transform="matrix(-1.836970e-16 1 -1 -1.836970e-16 166.6688 17.5491)" class="st0" width="11.8" height="11.8"/>
	
		<rect x="51" y="68.6" transform="matrix(-1.836970e-16 1 -1 -1.836970e-16 131.3872 17.5491)" class="st0" width="11.8" height="11.8"/>
	
		<rect x="20.1" y="20.1" transform="matrix(-1.836970e-16 1 -1 -1.836970e-16 52.0422 3.552714e-15)" class="st0" width="11.8" height="11.8"/>
	
		<rect x="37.4" y="2.6" transform="matrix(-1.836970e-16 1 -1 -1.836970e-16 51.7692 -34.8252)" class="st0" width="11.8" height="11.8"/>
	
		<rect x="20.1" y="37.8" transform="matrix(-1.836970e-16 1 -1 -1.836970e-16 69.6831 17.6408)" class="st0" width="11.8" height="11.8"/>
	
		<rect x="2.5" y="20.1" transform="matrix(-1.836970e-16 1 -1 -1.836970e-16 34.4014 17.6408)" class="st0" width="11.8" height="11.8"/>
	<rect x="206.9" y="2.5" class="st0" width="11.8" height="11.8"/>
	<rect x="158.4" y="20.1" class="st0" width="11.8" height="11.8"/>
	<rect x="158.4" y="2.5" class="st0" width="11.8" height="11.8"/>
</g>
</svg>
