<?xml version="1.0" encoding="utf-8"?>
<!-- Generator: Adobe Illustrator 23.0.2, SVG Export Plug-In . SVG Version: 6.00 Build 0)  -->
<svg version="1.1" id="Layer_1" xmlns="http://www.w3.org/2000/svg" xmlns:xlink="http://www.w3.org/1999/xlink" x="0px" y="0px"
	 viewBox="0 0 305 303" style="enable-background:new 0 0 305 303;" xml:space="preserve">
<style type="text/css">
	.st0{fill:#50E6FF;}
	.st1{fill:none;stroke:#0078D4;stroke-miterlimit:10;}
</style>
<g>
	<circle class="st0" cx="152.4" cy="151.4" r="8.3"/>
	<path class="st0" d="M144.1,10.2V1.5C67.8,5.8,6.8,66.8,2.5,143.1h8.7C15.4,71.6,72.6,14.4,144.1,10.2z"/>
	<path class="st1" d="M11.2,159.7H2.5c4.1,76.4,65.2,137.6,141.6,141.8v-8.9C72.6,288.4,15.4,231.2,11.2,159.7z"/>
	<path class="st0" d="M160.7,292.6v9c76.4-4.1,137.7-65.4,141.8-141.8h-9C289.4,231.2,232.2,288.4,160.7,292.6z"/>
	<path class="st1" d="M293.6,143.1h8.9C298.3,66.8,237.1,5.6,160.7,1.5v8.7C232.2,14.4,289.4,71.6,293.6,143.1z"/>
	<path class="st1" d="M160.7,267.6v8.3c62.3-4.1,112.1-53.9,116.2-116.2h-8.3C264.5,217.4,218.4,263.5,160.7,267.6z"/>
	<path class="st0" d="M268.6,143.1h8.3C272.8,80.8,223,31,160.7,26.9v8.3C218.4,39.3,264.5,85.4,268.6,143.1z"/>
	<path class="st1" d="M144.1,35.2v-8.3C81.8,31,32,80.8,27.9,143.1h8.3C40.3,85.4,86.4,39.3,144.1,35.2z"/>
	<path class="st1" d="M36.2,159.7h-8.3C32,222,81.8,271.8,144.1,275.9v-8.3C86.4,263.5,40.3,217.4,36.2,159.7z"/>
	<path class="st0" d="M61.3,159.7h-8.4c4,48.5,42.7,87.2,91.2,91.2v-8.4C100.2,238.6,65.2,203.6,61.3,159.7z"/>
	<path class="st1" d="M86.4,159.7H78c3.8,34.7,31.4,62.3,66.1,66.1v-8.4C114,213.7,90.1,189.8,86.4,159.7z"/>
	<path class="st1" d="M111.6,159.7h-8.4c3.5,20.9,20,37.4,40.9,40.9v-8.4C127.8,188.9,114.9,176,111.6,159.7z"/>
	<path class="st1" d="M160.7,242.5v8.4c48.5-4,87.2-42.7,91.2-91.2h-8.4C239.6,203.6,204.6,238.6,160.7,242.5z"/>
	<path class="st1" d="M160.7,217.4v8.4c34.7-3.8,62.3-31.4,66.1-66.1h-8.4C214.7,189.8,190.8,213.7,160.7,217.4z"/>
	<path class="st1" d="M160.7,192.2v8.4c20.9-3.5,37.4-20,40.9-40.9h-8.4C189.9,176,177,188.9,160.7,192.2z"/>
	<path class="st1" d="M243.5,143.1h8.4c-4-48.5-42.7-87.2-91.2-91.2v8.4C204.6,64.2,239.6,99.2,243.5,143.1z"/>
	<path class="st0" d="M218.4,143.1h8.4c-3.8-34.7-31.4-62.3-66.1-66.1v8.4C190.8,89.1,214.7,113,218.4,143.1z"/>
	<path class="st1" d="M193.2,143.1h8.4c-3.5-20.9-20-37.4-40.9-40.9v8.4C177,113.9,189.9,126.8,193.2,143.1z"/>
	<path class="st1" d="M144.1,60.3v-8.4c-48.5,4-87.2,42.7-91.2,91.2h8.4C65.2,99.2,100.2,64.2,144.1,60.3z"/>
	<path class="st1" d="M144.1,85.4V77c-34.7,3.8-62.3,31.4-66.1,66.1h8.4C90.1,113,114,89.1,144.1,85.4z"/>
	<path class="st0" d="M144.1,110.6v-8.4c-20.9,3.5-37.4,20-40.9,40.9h8.4C114.9,126.8,127.8,113.9,144.1,110.6z"/>
</g>
</svg>
