<?xml version="1.0" encoding="utf-8"?>
<!-- Generator: Adobe Illustrator 23.0.2, SVG Export Plug-In . SVG Version: 6.00 Build 0)  -->
<svg version="1.1" id="Layer_1" xmlns="http://www.w3.org/2000/svg" xmlns:xlink="http://www.w3.org/1999/xlink" x="0px" y="0px"
	 viewBox="0 0 305 303" style="enable-background:new 0 0 305 303;" xml:space="preserve">
<style type="text/css">
	.st0{fill:none;stroke:#0078D4;stroke-miterlimit:10;}
	.st1{fill:#0078D4;}
	.st2{fill:#50E6FF;}
	.st3{fill:none;stroke:#50E6FF;stroke-miterlimit:10;}
</style>
<g>
	<rect x="2.5" y="1.5" class="st0" width="18.8" height="300"/>
	<rect x="2.5" y="1.5" class="st1" width="18.8" height="300"/>
	<rect x="283.8" y="271.5" class="st2" width="18.8" height="30"/>
	<rect x="252.5" y="241.5" class="st1" width="18.8" height="60"/>
	<rect x="221.3" y="211.5" class="st1" width="18.8" height="90"/>
	<rect x="190" y="181.5" class="st1" width="18.8" height="120"/>
	<rect x="158.8" y="151.5" class="st1" width="18.8" height="150"/>
	<rect x="127.5" y="121.5" class="st1" width="18.8" height="180"/>
	<rect x="96.3" y="91.5" class="st1" width="18.8" height="210"/>
	<rect x="65" y="61.5" class="st1" width="18.8" height="240"/>
	<rect x="33.8" y="31.5" class="st1" width="18.8" height="270"/>
	<rect x="33.8" y="1.5" class="st0" width="18.8" height="300"/>
	<rect x="65" y="1.5" class="st0" width="18.8" height="300"/>
	<rect x="96.3" y="1.5" class="st0" width="18.8" height="300"/>
	<rect x="127.5" y="1.5" class="st0" width="18.8" height="300"/>
	<rect x="158.8" y="1.5" class="st0" width="18.8" height="300"/>
	<rect x="190" y="1.5" class="st0" width="18.8" height="300"/>
	<rect x="221.3" y="1.5" class="st0" width="18.8" height="300"/>
	<rect x="252.5" y="1.5" class="st0" width="18.8" height="300"/>
	<rect x="283.8" y="1.5" class="st3" width="18.8" height="300"/>
</g>
</svg>
