<?xml version="1.0" encoding="utf-8"?>
<!-- Generator: Adobe Illustrator 23.0.2, SVG Export Plug-In . SVG Version: 6.00 Build 0)  -->
<svg version="1.1" id="Layer_1" xmlns="http://www.w3.org/2000/svg" xmlns:xlink="http://www.w3.org/1999/xlink" x="0px" y="0px"
	 viewBox="0 0 305 305" style="enable-background:new 0 0 305 305;" xml:space="preserve">
<style type="text/css">
	.st0{fill:none;stroke:#0078D4;stroke-miterlimit:10;}
	.st1{fill:none;stroke:#50E6FF;stroke-miterlimit:10;}
	.st2{fill:#50E6FF;}
</style>
<g>
	<g>
		<line class="st0" x1="152.5" y1="235.9" x2="2.5" y2="85.9"/>
		<line class="st0" x1="139.2" y1="249.2" x2="2.5" y2="112.5"/>
		<line class="st0" x1="125.9" y1="262.5" x2="2.5" y2="139.2"/>
		<line class="st1" x1="112.5" y1="275.9" x2="2.5" y2="165.8"/>
		<line class="st0" x1="99.2" y1="289.2" x2="2.5" y2="192.5"/>
		<line class="st0" x1="85.9" y1="302.5" x2="2.5" y2="219.1"/>
	</g>
	<g>
		<line class="st0" x1="152.5" y1="69.1" x2="302.5" y2="219.1"/>
		<line class="st0" x1="165.8" y1="55.8" x2="302.5" y2="192.5"/>
		<line class="st0" x1="179.1" y1="42.5" x2="302.5" y2="165.8"/>
		<line class="st1" x1="192.5" y1="29.1" x2="302.5" y2="139.2"/>
		<line class="st0" x1="205.8" y1="15.8" x2="302.5" y2="112.5"/>
		<line class="st0" x1="219.1" y1="2.5" x2="302.5" y2="85.9"/>
	</g>
	<g>
		<line class="st0" x1="235.9" y1="152.5" x2="85.9" y2="302.5"/>
		<line class="st0" x1="249.2" y1="165.8" x2="112.5" y2="302.5"/>
		<line class="st0" x1="262.5" y1="179.1" x2="139.2" y2="302.5"/>
		<line class="st1" x1="275.9" y1="192.5" x2="165.8" y2="302.5"/>
		<line class="st0" x1="289.2" y1="205.8" x2="192.5" y2="302.5"/>
		<line class="st0" x1="302.5" y1="219.1" x2="219.1" y2="302.5"/>
	</g>
	<line class="st0" x1="152.5" y1="235.9" x2="2.5" y2="85.9"/>
	<g>
		<line class="st0" x1="69.1" y1="152.5" x2="219.1" y2="2.5"/>
		<line class="st0" x1="55.8" y1="139.2" x2="192.5" y2="2.5"/>
		<line class="st0" x1="42.5" y1="125.9" x2="165.8" y2="2.5"/>
		<line class="st1" x1="29.1" y1="112.5" x2="139.2" y2="2.5"/>
		<line class="st0" x1="15.8" y1="99.2" x2="112.5" y2="2.5"/>
		<line class="st0" x1="2.5" y1="85.9" x2="85.9" y2="2.5"/>
	</g>
	<line class="st0" x1="152.5" y1="69.1" x2="302.5" y2="219.1"/>
	<line class="st0" x1="235.9" y1="152.5" x2="85.9" y2="302.5"/>
	<polygon class="st0" points="85.9,2.5 2.5,85.9 2.5,219.1 85.9,302.5 219.1,302.5 302.5,219.1 302.5,85.9 219.1,2.5 	"/>
	
		<rect x="141.2" y="141.2" transform="matrix(0.7071 -0.7071 0.7071 0.7071 -63.1676 152.5)" class="st2" width="22.6" height="22.6"/>
</g>
</svg>
