<svg xmlns="http://www.w3.org/2000/svg" width="49.767" height="49.767" viewBox="0 0 49.767 49.767"><defs><style>.a{fill:#000;}</style></defs><path class="a" d="M216.526,211.763A4.763,4.763,0,1,1,211.763,207,4.763,4.763,0,0,1,216.526,211.763Zm0,0" transform="translate(-186.879 -186.879)"/><path class="a" d="M158.337,138.775a4.732,4.732,0,0,0-2.712-2.712,7.905,7.905,0,0,0-2.653-.492c-1.507-.069-1.959-.084-5.774-.084s-4.267.014-5.774.083a7.91,7.91,0,0,0-2.653.492,4.734,4.734,0,0,0-2.712,2.712,7.908,7.908,0,0,0-.492,2.653c-.069,1.507-.084,1.958-.084,5.774s.015,4.267.084,5.774a7.905,7.905,0,0,0,.492,2.653,4.732,4.732,0,0,0,2.712,2.712,7.9,7.9,0,0,0,2.653.492c1.507.069,1.958.083,5.774.083s4.268-.014,5.774-.083a7.9,7.9,0,0,0,2.653-.492,4.732,4.732,0,0,0,2.712-2.712,7.913,7.913,0,0,0,.492-2.653c.069-1.507.083-1.959.083-5.774s-.014-4.267-.083-5.774A7.9,7.9,0,0,0,158.337,138.775ZM147.2,154.539a7.337,7.337,0,1,1,7.337-7.337A7.337,7.337,0,0,1,147.2,154.539Zm7.627-13.25a1.715,1.715,0,1,1,1.715-1.715A1.715,1.715,0,0,1,154.826,141.29Zm0,0" transform="translate(-122.315 -122.319)"/><path class="a" d="M24.884,0A24.884,24.884,0,1,0,49.767,24.884,24.886,24.886,0,0,0,24.884,0Zm14.2,30.774a10.483,10.483,0,0,1-.664,3.468,7.306,7.306,0,0,1-4.179,4.179,10.49,10.49,0,0,1-3.468.664c-1.524.069-2.01.086-5.891.086s-4.367-.017-5.891-.086a10.49,10.49,0,0,1-3.468-.664,7.306,7.306,0,0,1-4.179-4.179,10.481,10.481,0,0,1-.664-3.468c-.07-1.524-.087-2.011-.087-5.891s.016-4.367.086-5.891a10.484,10.484,0,0,1,.664-3.468,7.311,7.311,0,0,1,4.179-4.179,10.493,10.493,0,0,1,3.468-.664c1.524-.069,2.01-.086,5.891-.086s4.367.017,5.891.087a10.5,10.5,0,0,1,3.468.663,7.308,7.308,0,0,1,4.179,4.179,10.482,10.482,0,0,1,.664,3.468c.069,1.524.086,2.01.086,5.891S39.156,29.251,39.086,30.774Zm0,0" transform="translate(0)"/></svg>