<svg xmlns="http://www.w3.org/2000/svg" width="49.767" height="49.767" viewBox="0 0 49.767 49.767"><defs><style>.a{fill:#fff;}</style></defs><path class="a" d="M24.884,0A24.884,24.884,0,1,0,49.767,24.884,24.886,24.886,0,0,0,24.884,0ZM17.653,37.617h-6.06V19.384h6.06Zm-3.03-20.722h-.039a3.159,3.159,0,1,1,.08-6.3,3.16,3.16,0,1,1-.04,6.3ZM39.5,37.617h-6.06V27.863c0-2.451-.877-4.123-3.07-4.123a3.318,3.318,0,0,0-3.109,2.216,4.15,4.15,0,0,0-.2,1.479V37.617h-6.06s.079-16.522,0-18.232h6.06v2.582a6.016,6.016,0,0,1,5.462-3.009c3.987,0,6.977,2.606,6.977,8.206Zm0,0"/></svg>