<svg id="Layer_1" data-name="Layer 1" xmlns="http://www.w3.org/2000/svg" viewBox="0 0 25.18 45.65"><defs><style>.cls-1{fill:#555;}</style></defs><title>MIC</title><g id="microphone"><path id="Path_44" data-name="Path 44" class="cls-1" d="M24.4,22a.78.78,0,0,0-.79.78v4.73a11,11,0,0,1-22,0h0V22.82a.79.79,0,0,0-1.57,0H0v4.73A12.6,12.6,0,0,0,11.8,40.1v4H7.87a.79.79,0,0,0,0,1.58h9.44a.79.79,0,0,0,0-1.58H13.38v-4a12.6,12.6,0,0,0,11.8-12.56V22.82A.78.78,0,0,0,24.4,22Z"/><path id="Path_45" data-name="Path 45" class="cls-1" d="M12.59,36.2a8.68,8.68,0,0,0,8.66-8.66V8.66a8.66,8.66,0,0,0-17.32,0V27.55A8.67,8.67,0,0,0,12.59,36.2ZM7.45,3.8a.78.78,0,0,0,.42.14.79.79,0,0,0,.78-.79h0a.71.71,0,0,0-.07-.32,7,7,0,0,1,8,0,.72.72,0,0,0-.08.32.8.8,0,0,0,.79.79h0a.78.78,0,0,0,.42-.14A7.06,7.06,0,0,1,18.9,5.45s0,0,0,.06a.77.77,0,0,0,.31.61,7.34,7.34,0,0,1,.48,2.54v.79a.79.79,0,1,0,0,1.57v3.15a.79.79,0,1,0,0,1.57v3.15a.79.79,0,0,0,0,1.57h0v3.15a.79.79,0,0,0,0,1.57h0v2.37a7,7,0,0,1-.05.79.78.78,0,0,0-.74.81.77.77,0,0,0,.41.65,7.1,7.1,0,0,1-3.57,4.09s0,0,0,0a.78.78,0,0,0-.78-.79.77.77,0,0,0-.79.78.8.8,0,0,0,.22.55,6.87,6.87,0,0,1-3.6,0,.78.78,0,0,0,0-1.11.79.79,0,0,0-1.11,0,.78.78,0,0,0-.22.55s0,0,0,0A7.13,7.13,0,0,1,5.88,29.8a.78.78,0,0,0-.33-1.46,7,7,0,0,1,0-.79V25.18a.79.79,0,0,0,0-1.57V20.46a.79.79,0,0,0,0-1.57V15.74a.79.79,0,0,0,0-1.57V11a.79.79,0,0,0,0-1.58V8.66A7.1,7.1,0,0,1,6,6.12a.75.75,0,0,0,.31-.61s0,0,0-.06A7.06,7.06,0,0,1,7.45,3.8Z"/><circle id="Ellipse_2" data-name="Ellipse 2" class="cls-1" cx="12.59" cy="3.15" r="0.79"/><circle id="Ellipse_3" data-name="Ellipse 3" class="cls-1" cx="10.23" cy="5.51" r="0.79"/><circle id="Ellipse_4" data-name="Ellipse 4" class="cls-1" cx="10.23" cy="10.23" r="0.79"/><circle id="Ellipse_5" data-name="Ellipse 5" class="cls-1" cx="7.87" cy="7.87" r="0.79"/><circle id="Ellipse_6" data-name="Ellipse 6" class="cls-1" cx="12.59" cy="7.87" r="0.79"/><circle id="Ellipse_7" data-name="Ellipse 7" class="cls-1" cx="7.87" cy="12.59" r="0.79"/><circle id="Ellipse_8" data-name="Ellipse 8" class="cls-1" cx="12.59" cy="12.59" r="0.79"/><circle id="Ellipse_9" data-name="Ellipse 9" class="cls-1" cx="14.95" cy="5.51" r="0.79"/><circle id="Ellipse_10" data-name="Ellipse 10" class="cls-1" cx="14.95" cy="10.23" r="0.79"/><circle id="Ellipse_11" data-name="Ellipse 11" class="cls-1" cx="17.31" cy="7.87" r="0.79"/><circle id="Ellipse_12" data-name="Ellipse 12" class="cls-1" cx="17.31" cy="12.59" r="0.79"/><circle id="Ellipse_13" data-name="Ellipse 13" class="cls-1" cx="10.23" cy="14.95" r="0.79"/><circle id="Ellipse_14" data-name="Ellipse 14" class="cls-1" cx="10.23" cy="19.68" r="0.79"/><circle id="Ellipse_15" data-name="Ellipse 15" class="cls-1" cx="7.87" cy="17.31" r="0.79"/><circle id="Ellipse_16" data-name="Ellipse 16" class="cls-1" cx="12.59" cy="17.31" r="0.79"/><circle id="Ellipse_17" data-name="Ellipse 17" class="cls-1" cx="7.87" cy="22.04" r="0.79"/><circle id="Ellipse_18" data-name="Ellipse 18" class="cls-1" cx="12.59" cy="22.04" r="0.79"/><circle id="Ellipse_19" data-name="Ellipse 19" class="cls-1" cx="14.95" cy="14.95" r="0.79"/><circle id="Ellipse_20" data-name="Ellipse 20" class="cls-1" cx="14.95" cy="19.68" r="0.79"/><circle id="Ellipse_21" data-name="Ellipse 21" class="cls-1" cx="17.31" cy="17.31" r="0.79"/><circle id="Ellipse_22" data-name="Ellipse 22" class="cls-1" cx="17.31" cy="22.04" r="0.79"/><circle id="Ellipse_23" data-name="Ellipse 23" class="cls-1" cx="10.23" cy="24.4" r="0.79"/><circle id="Ellipse_24" data-name="Ellipse 24" class="cls-1" cx="10.23" cy="29.12" r="0.79"/><circle id="Ellipse_25" data-name="Ellipse 25" class="cls-1" cx="7.87" cy="26.76" r="0.79"/><circle id="Ellipse_26" data-name="Ellipse 26" class="cls-1" cx="12.59" cy="26.76" r="0.79"/><circle id="Ellipse_27" data-name="Ellipse 27" class="cls-1" cx="7.87" cy="31.48" r="0.79"/><circle id="Ellipse_28" data-name="Ellipse 28" class="cls-1" cx="12.59" cy="31.48" r="0.79"/><circle id="Ellipse_29" data-name="Ellipse 29" class="cls-1" cx="14.95" cy="24.4" r="0.79"/><circle id="Ellipse_30" data-name="Ellipse 30" class="cls-1" cx="14.95" cy="29.12" r="0.79"/><circle id="Ellipse_31" data-name="Ellipse 31" class="cls-1" cx="17.31" cy="26.76" r="0.79"/><circle id="Ellipse_32" data-name="Ellipse 32" class="cls-1" cx="17.31" cy="31.48" r="0.79"/></g><rect class="cls-1" x="3.93" y="1.58" width="16.82" height="33.36" rx="8.41"/></svg>