<svg xmlns="http://www.w3.org/2000/svg" width="49.767" height="49.767" viewBox="0 0 49.767 49.767"><defs><style>.a{fill:#000;}</style></defs><path class="a" d="M24.884,0A24.884,24.884,0,1,0,49.767,24.884,24.886,24.886,0,0,0,24.884,0ZM36.245,19.4q.017.367.016.738c0,7.547-5.745,16.25-16.25,16.25h0a16.167,16.167,0,0,1-8.755-2.566,11.617,11.617,0,0,0,1.362.079,11.46,11.46,0,0,0,7.094-2.445,5.718,5.718,0,0,1-5.336-3.967,5.692,5.692,0,0,0,2.58-.1,5.713,5.713,0,0,1-4.582-5.6c0-.026,0-.049,0-.073a5.672,5.672,0,0,0,2.587.714,5.716,5.716,0,0,1-1.768-7.625,16.216,16.216,0,0,0,11.773,5.968A5.715,5.715,0,0,1,34.7,15.57a11.456,11.456,0,0,0,3.627-1.386,5.734,5.734,0,0,1-2.512,3.159,11.391,11.391,0,0,0,3.28-.9A11.607,11.607,0,0,1,36.245,19.4Zm0,0"/></svg>