<svg xmlns="http://www.w3.org/2000/svg" width="15.951" height="21.841" viewBox="0 0 15.951 21.841"><defs><style>.a{fill:#80e050;}.b,.c{stroke:none;}.c{fill:#fff;}</style></defs><g class="a" transform="translate(1 20.841) rotate(-90)"><path class="b" d="M 12.86470222473145 14.45126152038574 C 12.54160213470459 14.45126152038574 12.23714256286621 14.32474136352539 12.00740242004395 14.09499168395996 C 11.54446220397949 13.6331615447998 11.54158210754395 12.86994171142578 12.00138187408447 12.39408206939697 L 12.00453186035156 12.39082145690918 L 12.00773239135742 12.3876314163208 L 16.2225284576416 8.180691719055176 L 0.7000221610069275 8.180691719055176 C 0.03833218291401863 8.180691719055176 -0.4999978244304657 7.637841701507568 -0.4999978244304657 6.97059154510498 C -0.4999978244304657 6.309621810913086 0.0379621833562851 5.771011829376221 0.6992121934890747 5.769941806793213 L 16.22412300109863 5.769941806793213 L 12.00740242004395 1.553221702575684 C 11.78256225585938 1.328921675682068 11.65841197967529 1.02778172492981 11.65822219848633 0.7056916952133179 C 11.65803241729736 0.3832817077636719 11.78204250335693 0.08162171393632889 12.00740242004395 -0.1437382847070694 C 12.23714256286621 -0.3734782934188843 12.54152202606201 -0.4999982714653015 12.86446189880371 -0.4999982714653015 C 13.18894004821777 -0.4999982714653015 13.4914436340332 -0.3726604580879211 13.71685886383057 -0.141321137547493 L 19.98227310180664 6.124711990356445 C 20.2136287689209 6.349668502807617 20.34109306335449 6.651429176330566 20.34128189086914 6.975001811981201 C 20.34148216247559 7.299111366271973 20.21401977539062 7.601553916931152 19.98225021362305 7.82720422744751 L 13.71756649017334 14.0918664932251 C 13.49237632751465 14.3236722946167 13.189697265625 14.45126152038574 12.86470222473145 14.45126152038574 Z"/><path class="c" d="M 12.86446571350098 -9.5367431640625e-07 C 12.6832389831543 -9.5367431640625e-07 12.50083160400391 0.06993675231933594 12.36095237731934 0.2098121643066406 C 12.09064197540283 0.4801216125488281 12.09064197540283 0.9300012588500977 12.36095237731934 1.199671745300293 L 17.43122291564941 6.269941806793213 L 0.7000217437744141 6.269941806793213 C 0.3100013732910156 6.270571708679199 1.9073486328125e-06 6.58057165145874 1.9073486328125e-06 6.97059154510498 C 1.9073486328125e-06 7.360611915588379 0.3100013732910156 7.680691719055176 0.7000217437744141 7.680691719055176 L 17.43122291564941 7.680691719055176 L 12.36095237731934 12.7415018081665 C 12.09064197540283 13.02126121520996 12.09064197540283 13.47177124023438 12.36095237731934 13.74144172668457 C 12.50083160400391 13.88132190704346 12.68339920043945 13.95126152038574 12.86470603942871 13.95126152038574 C 13.04601287841797 13.95126152038574 13.2260570526123 13.88132190704346 13.3608922958374 13.74144172668457 L 19.63147163391113 7.470881938934326 C 19.91122245788574 7.200571537017822 19.91122245788574 6.750691890716553 19.63147163391113 6.481021881103516 L 13.3608922958374 0.2098121643066406 C 13.22573661804199 0.06993675231933594 13.04569244384766 -9.5367431640625e-07 12.86446571350098 -9.5367431640625e-07 M 12.86446189880371 -0.9999980926513672 C 13.32416534423828 -0.9999980926513672 13.75300025939941 -0.8197250366210938 14.0731372833252 -0.4921531677246094 L 20.33327865600586 5.768617630004883 C 20.6560001373291 6.083828449249268 20.84101486206055 6.522756576538086 20.84128189086914 6.974711894989014 C 20.84155082702637 7.427020072937012 20.65678405761719 7.866618633270264 20.33399391174316 8.18257999420166 L 14.07301139831543 14.44354343414307 C 13.75318717956543 14.7710542678833 13.32454872131348 14.95126152038574 12.86470222473145 14.95126152038574 C 12.40805244445801 14.95126152038574 11.9780216217041 14.77273178100586 11.65384197235107 14.44855213165283 C 10.99925231933594 13.79550170898438 10.9934720993042 12.71764183044434 11.64180183410645 12.04664134979248 L 11.64809226989746 12.04013156890869 L 11.65450191497803 12.03373146057129 L 15.01380920410156 8.680691719055176 L 0.7000217437744141 8.680691719055176 C -0.2373676300048828 8.680691719055176 -0.9999980926513672 7.913541793823242 -0.9999980926513672 6.97059154510498 C -0.9999980926513672 6.034361839294434 -0.23809814453125 5.271451950073242 0.6984024047851562 5.269941329956055 L 15.01700210571289 5.269941329956055 L 11.65384197235107 1.906782150268555 C 11.33480262756348 1.588491439819336 11.15849208831787 1.161751747131348 11.15822219848633 0.7060012817382812 C 11.15795230865479 0.2499217987060547 11.33396244049072 -0.1774187088012695 11.65384197235107 -0.4972982406616211 C 11.9780216217041 -0.8214683532714844 12.40795230865479 -0.9999980926513672 12.86446189880371 -0.9999980926513672 Z"/></g></svg>